<svg width="64" height="20" viewBox="0 0 64 20" fill="none" xmlns="http://www.w3.org/2000/svg">
<g clip-path="url(#clip0)">
<path fill-rule="evenodd" clip-rule="evenodd" d="M17.5725 14.7429C19.3177 14.3427 20.6193 12.7803 20.6193 10.9137C20.6193 8.74412 18.8605 6.98532 16.6909 6.98532C14.5213 6.98532 12.7625 8.74412 12.7625 10.9137C12.7625 12.7634 14.0409 14.3145 15.7622 14.7317C16.1149 13.1665 15.0703 11.7349 13.9411 11.8913C13.9411 11.8913 14.0711 11.1257 14.9262 10.8715C15.6635 10.6527 15.9803 11.0089 16.0537 11.1115C16.0634 11.1267 16.0695 11.1356 16.0708 11.1375C16.0709 11.1377 16.0711 11.1379 16.0711 11.1379C16.0711 11.1379 16.0655 11.1279 16.0537 11.1115C15.9673 10.9755 15.594 10.3334 15.7869 9.65652C16.0042 8.89392 16.7197 8.56152 16.7197 8.56152L16.7113 8.55679C16.7113 8.55679 17.4219 8.89945 17.6276 9.66512C17.8105 10.3447 17.4289 10.981 17.3402 11.1164C17.3281 11.1328 17.3223 11.1428 17.3223 11.1428C17.3223 11.1428 17.3289 11.1337 17.3402 11.1164C17.4155 11.0144 17.7378 10.6632 18.4705 10.8923C19.3216 11.1584 19.4409 11.9256 19.4409 11.9256C18.186 11.6415 17.1333 13.1495 17.5725 14.7429ZM16.8562 14.8387L16.4881 14.837C16.5553 14.8404 16.6229 14.8421 16.6909 14.8421C16.7463 14.8421 16.8014 14.841 16.8562 14.8387Z" fill="white"/>
<path d="M10.4994 10.1995C9.433 10.7141 8.2026 11.0393 6.75347 11.0393C5.60505 11.0393 4.70263 10.6871 4.1834 10.0097C3.90993 9.63048 3.77319 9.03434 3.74593 8.65534C9.13227 8.79081 12.4407 7.57168 12.4407 4.21198C12.4407 1.74646 10.4994 0.22934 7.7926 0.22934C2.953 0.22934 0 4.42872 0 8.46561C0 11.9333 1.96859 14.0783 5.76904 14.0783C7.27293 14.0783 9.21427 13.8073 10.7726 13.0172L10.4994 10.1995ZM8.74953 4.18475C8.74953 5.4309 7.2184 5.83736 4.12843 5.81035C4.40191 4.59121 5.46831 3.07408 7.3002 3.07408C8.2026 3.07408 8.74953 3.53456 8.74953 4.18475Z" fill="white"/>
<path d="M50.0001 0.418287L54.8671 13.6664H59.0231L63.9994 0.418287H59.6247L57.9021 6.56825C57.6014 7.70613 57.3829 8.70853 57.1639 9.79247H57.0819C56.8632 8.7358 56.6443 7.7064 56.3163 6.56825L54.5117 0.418287H50.0003H50.0001ZM35.213 4.3737C35.213 2.39588 35.2675 1.28499 35.3222 0.418287H31.7133L31.5765 2.01688H31.5218C30.8383 0.905987 29.6899 0.120531 27.8581 0.120531C24.5496 0.120531 21.7879 2.82957 21.7879 7.1102C21.7879 10.9033 24.1394 13.5581 27.4479 13.5581C28.979 13.5581 30.2641 12.9352 31.0571 11.8513H31.1118V12.6912C31.1118 15.1612 29.6081 16.1906 27.6393 16.1906C26.0535 16.1906 24.6045 15.6759 23.7569 15.1882L22.9367 18.3309C24.1396 18.9811 25.9715 19.3333 27.7488 19.3333C29.7174 19.3333 31.7135 18.9541 33.1626 17.7077C34.6937 16.3803 35.2134 14.2943 35.2134 11.743V4.37392L35.213 4.3737ZM31.0568 7.76013C31.0568 8.1124 31.0296 8.54587 30.9201 8.8708C30.6466 9.819 29.7992 10.5235 28.7053 10.5235C26.9829 10.5235 25.9985 8.97933 25.9985 7.00147C25.9985 4.59021 27.2014 3.23558 28.7325 3.23558C29.8809 3.23558 30.6739 3.96724 30.9746 5.05068C31.0289 5.29999 31.0564 5.5543 31.0566 5.80935V7.75993L31.0568 7.76013ZM43.6669 0.000223082C39.3468 0.000223082 36.5031 2.73649 36.5031 7.04413C36.5031 11.3247 39.5108 13.8757 43.4207 13.8757C47.0027 13.8757 50.4751 11.6497 50.4751 6.80013C50.4751 2.79051 47.7409 0 43.6669 0V0.000223082ZM43.5302 2.95322C45.4168 2.95322 46.1825 4.95805 46.1825 6.90867C46.1825 9.31967 45.1708 10.9183 43.5302 10.9183C41.7529 10.9183 40.7959 9.21147 40.7959 6.93567C40.7959 4.98506 41.5616 2.953 43.5302 2.953V2.95322Z" fill="white"/>
</g>
<defs>
<clipPath id="clip0">
<rect width="64" height="19.3333" fill="white"/>
</clipPath>
</defs>
</svg>
